<?xml version="1.0" encoding="utf-8"?>
<!-- Generator: Adobe Illustrator 18.1.0, SVG Export Plug-In . SVG Version: 6.00 Build 0)  -->
<svg version="1.1" id="Layer_1" xmlns="http://www.w3.org/2000/svg" xmlns:xlink="http://www.w3.org/1999/xlink" x="0px" y="0px"
	 viewBox="0 0 528 77" enable-background="new 0 0 528 77" xml:space="preserve">
<g>
	<g>
		<path fill="#FFFFFF" d="M133,1c12.3,0,24.7,0,37,0c-0.5,0.8-0.8,1.9-1.6,2.3c-9.9,4.7-15.3,12.4-15.7,23.4
			c-0.2,7.1,0.1,14.3-0.1,21.4c-0.4,13.5,4.8,23.3,17.8,28.4c-0.6,0.6-1,1.1-1.4,1.5c-11.7,0-23.3,0-35,0c-0.5-0.4-1-0.7-1.9-1.4
			c11.9-4.5,17.9-12.7,18.3-24.7c0.3-8.3,0.3-16.7,0-25c-0.4-11.2-5.7-19.2-16-23.8C133.7,2.9,133.4,1.7,133,1z"/>
		<path fill="#FFFFFF" d="M319,78c-11.7,0-23.3,0-35,0c0.6-0.8,0.9-2,1.7-2.4c10-4.7,15.2-12.5,15.5-23.5c0.2-7.8,0.1-15.6,0.1-23.4
			c0-12.6-5.8-21.4-17.7-26.1c0.8-0.5,1.6-1,2.3-1.6c11.3,0,22.7,0,34,0c0.5,0.4,1,0.8,1.8,1.4c-13.3,5.1-18.6,14.8-18.3,28
			c0.1,5.1,0.2,10.3,0,15.4c-0.7,14.1,3.6,25.3,18.1,30.7C320.4,77.2,319.7,77.6,319,78z"/>
		<path fill="#FFFFFF" d="M471,78c-12.7,0-25.3,0-38,0c0.5-0.6,0.8-1.6,1.5-1.8c13.3-4.8,18.6-14.8,18.5-28.4c0-7,0-13.9,0-20.9
			c0-1.5,0-3.1-0.5-4.4c-3.4-8.8-7.8-16.9-18.4-19.9c2.2-0.7,3.5-1.1,4.9-1.6c10.7,0,21.3,0,32,0c0.6,0.4,1.3,0.9,2,1.4
			c-12.9,5.7-17.8,13.5-17.9,27.9c0,6.3,0.1,12.6,0,18.9c-0.3,13.2,5.5,22.4,18.1,27.4C472.3,77.1,471.7,77.6,471,78z"/>
		<path fill="#FFFFFF" d="M94,78c-12,0-24,0-36,0c0.2-0.7,0.3-2,0.7-2.2c10.9-4.9,16.1-13.3,16.2-25.2c0-7.5,0.1-15,0-22.4
			c-0.1-11.8-5.3-20.3-16.3-25C57.9,2.9,57.5,1.7,57,1c12.3,0,24.7,0,37,0c-0.2,0.7-0.2,2-0.7,2.2c-10.9,4.9-16,13.4-16.2,25.2
			c-0.1,7,0,13.9,0,20.9C77,61.7,81.9,71,93.8,76C94.1,76.1,93.9,77.3,94,78z"/>
		<path fill="#FFFFFF" d="M244,78c-11.7,0-23.3,0-35,0c0.3-0.8,0.3-2,0.8-2.2c10.7-4.9,16-13.2,16.1-24.8c0.1-7.2,0-14.3,0-21.5
			C226,17.1,221,8,209.3,3.1c-0.3-0.1-0.2-1.3-0.3-2.1c12.7,0,25.3,0,38,0c-1,0.9-1.9,2.1-3.1,2.6c-11,4.8-15.8,13.5-15.8,25.3
			c0,6.6,0.1,13.3,0,19.9c-0.3,13.4,5.3,22.8,18.2,27.8C245.3,77.2,244.7,77.6,244,78z"/>
		<path fill="#FFFFFF" d="M395,78c-12.3,0-24.7,0-37,0c0.6-0.7,1-1.7,1.8-2c11.9-4.5,17-13.5,17.1-25.9c0.1-6.8-0.1-13.6,0-20.4
			c0.2-13.2-5.5-22.4-18-27.2C360,2,361,1.5,362,1c11,0,22,0,33,0c0.6,0.4,1.3,0.9,2,1.4c-12.9,5.7-17.8,13.5-17.9,27.9
			c0,6.3,0.1,12.6,0,18.9c-0.3,13.2,5.5,22.4,18.1,27.4C396.3,77.1,395.7,77.6,395,78z"/>
		<path d="M57,1c0.5,0.7,0.9,1.9,1.6,2.2c11,4.8,16.2,13.2,16.3,25c0.1,7.5,0,15,0,22.4c0,11.8-5.3,20.3-16.2,25.2
			C58.3,76,58.2,77.3,58,78c-14,0-28,0-42,0c1.1-0.5,2.3-1,3.4-1.5C10.3,72.6,7.4,69.6,3,60c-0.2-0.5-1.3-0.7-2-1
			c0-13.3,0-26.7,0-40c0.7-0.1,1.9,0,2-0.3C5.9,11.2,10.8,5.9,18.4,3c0.4-0.2,0.4-1.3,0.6-2C31.7,1,44.3,1,57,1z M73.2,39.6
			C73.2,39.6,73.2,39.6,73.2,39.6c0-4.5,0.2-9,0-13.5c-0.8-13.6-10.3-22.8-23.9-23C42,3,34.7,3,27.3,3.2C13.7,3.4,3.7,13,3.2,26.6
			c-0.3,8.6-0.3,17.3,0,25.9C3.8,66,13.7,75.5,27,75.8c7.5,0.2,15,0.2,22.5,0c13.3-0.3,22.9-9.4,23.7-22.7
			C73.4,48.6,73.2,44.1,73.2,39.6z"/>
		<path d="M395,78c0.7-0.4,1.3-0.9,2.2-1.4c-12.7-4.9-18.4-14.1-18.1-27.4c0.1-6.3,0-12.6,0-18.9c0-14.4,5-22.2,17.9-27.9
			c-0.7-0.5-1.3-0.9-2-1.4c14.7,0,29.3,0,44,0c-1.4,0.4-2.7,0.9-4.9,1.6c10.6,3,15,11.1,18.4,19.9c0.5,1.3,0.5,2.9,0.5,4.4
			c0,7,0,13.9,0,20.9c0.1,13.6-5.2,23.6-18.5,28.4c-0.6,0.2-1,1.2-1.5,1.8C420.3,78,407.7,78,395,78z M380.8,39.2
			c0,4.7-0.2,9.3,0,14c0.8,13.3,10.4,22.4,23.7,22.6c7.3,0.1,14.6,0.1,22,0c13.7-0.2,23.7-9.8,24.3-23.4c0.3-8.6,0.3-17.3,0-25.9
			c-0.5-13.4-10.4-23-23.8-23.4c-7.6-0.2-15.3-0.2-23,0c-13.1,0.4-22.5,9.5-23.2,22.6C380.6,30.3,380.8,34.8,380.8,39.2z"/>
		<path d="M471,78c0.7-0.4,1.3-0.9,2.2-1.4c-12.7-4.9-18.4-14.1-18.1-27.4c0.1-6.3,0-12.6,0-18.9c0-14.4,5-22.2,17.9-27.9
			c-0.7-0.5-1.3-0.9-2-1.4c14.7,0,29.3,0,44,0c-1.4,0.5-2.9,0.9-4.5,1.5c9.6,4.2,12.9,7.7,16.6,17.6c0.3,0.8,1.3,1.3,1.9,2
			c0,12,0,24,0,36c-0.7,0.6-1.7,1-2,1.7c-2.7,8.1-7.9,13.6-16.1,16.3c-0.8,0.3-1.3,1.3-1.9,1.9C496.3,78,483.7,78,471,78z
			 M456.8,39.4C456.8,39.4,456.8,39.4,456.8,39.4c0,4.5-0.2,9,0,13.5c0.8,13.6,10.3,22.7,23.9,23c7.3,0.1,14.6,0.1,22,0
			c13.4-0.2,23.4-9.6,24.1-23c0.4-8.8,0.4-17.6,0-26.4c-0.6-13.2-10.3-22.8-23.4-23.2C495.6,3,487.8,3,480,3.2
			c-13,0.4-22.4,9.6-23.1,22.7C456.6,30.4,456.8,34.9,456.8,39.4z"/>
		<path d="M362,1c-1,0.5-2,1-3.1,1.5c12.5,4.8,18.2,14.1,18,27.2c-0.1,6.8,0,13.6,0,20.4c-0.1,12.3-5.2,21.3-17.1,25.9
			c-0.7,0.3-1.2,1.3-1.8,2c-13,0-26,0-39,0c0.7-0.4,1.4-0.8,2.6-1.5c-14.4-5.4-18.7-16.6-18.1-30.7c0.2-5.1,0.1-10.3,0-15.4
			c-0.3-13.3,5.1-23,18.3-28c-0.8-0.6-1.3-1-1.8-1.4C334,1,348,1,362,1z M375.1,39.4C375.2,39.4,375.2,39.4,375.1,39.4
			c0.1-4.3,0.2-8.7,0-13c-0.6-13.5-10.2-22.9-23.7-23.2C344,3,336.5,3,329,3.2c-13.2,0.3-23.1,9.6-23.8,22.8
			c-0.4,9.1-0.5,18.3,0,27.4c0.7,12.7,10.4,22,23,22.4c8,0.3,16,0.3,23.9,0c12.8-0.4,22.2-9.8,22.9-22.5
			C375.3,48.7,375.1,44,375.1,39.4z"/>
		<path d="M94,78c-0.1-0.7,0.1-1.9-0.2-2C81.9,71,77,61.7,77.1,49.2c0.1-7,0-13.9,0-20.9c0.1-11.7,5.3-20.3,16.2-25.2
			C93.8,3,93.8,1.7,94,1c13,0,26,0,39,0c0.4,0.7,0.7,1.9,1.3,2.2c10.3,4.6,15.7,12.6,16,23.8c0.3,8.3,0.3,16.7,0,25
			c-0.4,12-6.4,20.2-18.3,24.7c0.9,0.6,1.4,1,1.9,1.4C120.7,78,107.3,78,94,78z M78.9,39.7C78.8,39.7,78.8,39.7,78.9,39.7
			c0,4.3-0.2,8.7,0,13c0.6,13.5,10.2,22.9,23.7,23.2c7.5,0.2,15,0.2,22.5,0c13.2-0.3,23.1-9.6,23.8-22.8c0.4-9,0.4-18,0-26.9
			c-0.6-13-10.2-22.5-23.1-22.9c-8-0.3-16-0.3-23.9,0C89,3.7,79.6,13,78.9,25.7C78.7,30.3,78.9,35,78.9,39.7z"/>
		<path d="M209,1c0.1,0.7-0.1,1.9,0.3,2.1C221,8,226,17.1,225.9,29.5c-0.1,7.2,0,14.3,0,21.5c-0.1,11.6-5.4,20-16.1,24.8
			c-0.5,0.2-0.5,1.4-0.8,2.2c-13.3,0-26.7,0-40,0c0.4-0.5,0.8-0.9,1.4-1.5c-13-5.1-18.2-14.9-17.8-28.4c0.2-7.1-0.1-14.3,0.1-21.4
			c0.3-11,5.8-18.7,15.7-23.4c0.7-0.3,1.1-1.5,1.6-2.3C183,1,196,1,209,1z M224.2,39.7C224.2,39.7,224.2,39.7,224.2,39.7
			c0-4.5,0.2-9,0-13.5c-0.7-13.5-10.3-22.8-23.9-23c-7.3-0.1-14.6-0.1-22,0c-13.7,0.2-23.6,9.8-24.2,23.4c-0.3,8.6-0.3,17.3,0,25.9
			c0.6,13.5,10.4,23,23.8,23.3c7.6,0.2,15.3,0.2,23,0c13-0.4,22.5-9.7,23.2-22.7C224.4,48.7,224.2,44.2,224.2,39.7z"/>
		<path d="M244,78c0.7-0.4,1.3-0.8,2.3-1.4c-12.9-5-18.5-14.4-18.2-27.8c0.2-6.6,0-13.3,0-19.9c0-11.7,4.8-20.4,15.8-25.3
			c1.2-0.5,2.1-1.7,3.1-2.6c13,0,26,0,39,0c-0.8,0.5-1.5,1-2.3,1.6c11.8,4.7,17.7,13.4,17.7,26.1c0,7.8,0.1,15.6-0.1,23.4
			c-0.3,11-5.6,18.8-15.5,23.5c-0.8,0.4-1.1,1.6-1.7,2.4C270.7,78,257.3,78,244,78z M299.9,39.8c0-4.3,0.2-8.7,0-13
			c-0.6-13.5-10.2-23.2-23.5-23.6c-7.8-0.2-15.6-0.2-23.5,0c-13,0.4-22.5,9.7-23,22.8c-0.4,8.8-0.4,17.6-0.1,26.4
			c0.5,14.1,10.3,23.3,24.5,23.4c7,0.1,14,0.1,21,0c14.2-0.2,24.1-9.9,24.6-24.1C300,47.8,299.9,43.8,299.9,39.8z"/>
		<path fill="#FFFFFF" d="M509,78c0.6-0.7,1.2-1.7,1.9-1.9c8.2-2.7,13.3-8.3,16.1-16.3c0.2-0.7,1.3-1.2,2-1.7c0,6.7,0,13.3,0,20
			C522.3,78,515.7,78,509,78z"/>
		<path fill="#FFFFFF" d="M19,1c-0.2,0.7-0.2,1.9-0.6,2C10.8,5.9,5.9,11.2,3,18.7C2.9,19,1.7,18.9,1,19C1,13,1,7,1,1C7,1,13,1,19,1z
			"/>
		<path fill="#FFFFFF" d="M529,22c-0.7-0.7-1.6-1.2-1.9-2c-3.7-9.8-7-13.4-16.6-17.6c1.6-0.5,3-1,4.5-1.5c4.6,0,9.2,0,14,0
			C529,8,529,15,529,22z"/>
		<path fill="#FFFFFF" d="M1,59c0.7,0.3,1.8,0.5,2,1c4.4,9.5,7.3,12.5,16.4,16.5c-1.2,0.5-2.3,1-3.4,1.5c-5,0-10,0-15,0
			C1,71.7,1,65.3,1,59z"/>
		<path fill="#FFFFFF" d="M73.2,39.6c0,4.5,0.2,9,0,13.5c-0.8,13.3-10.3,22.4-23.7,22.7C42,76,34.5,76,27,75.8
			C13.7,75.5,3.8,66,3.2,52.6c-0.4-8.6-0.3-17.3,0-25.9C3.7,13,13.7,3.4,27.3,3.2C34.7,3,42,3,49.3,3.2c13.6,0.2,23.1,9.4,23.9,23
			C73.4,30.7,73.2,35.2,73.2,39.6C73.2,39.6,73.2,39.6,73.2,39.6z M44.7,39.2c0-3.5-3.2-6.8-6.7-6.8c-3.4,0-6.6,3.3-6.6,6.9
			c0,3.7,3.1,6.8,6.6,6.7C41.6,46,44.7,42.8,44.7,39.2z"/>
		<path fill="#FFFFFF" d="M380.8,39.2c0-4.5-0.2-9,0-13.5c0.8-13.1,10.2-22.2,23.2-22.6c7.6-0.2,15.3-0.2,23,0
			c13.3,0.3,23.2,9.9,23.8,23.4c0.3,8.6,0.3,17.3,0,25.9c-0.5,13.6-10.6,23.1-24.3,23.4c-7.3,0.1-14.6,0.1-22,0
			c-13.4-0.3-23-9.4-23.7-22.6C380.6,48.6,380.8,43.9,380.8,39.2z M404.9,56.9c-0.1-3.5-3.3-6.8-6.7-6.8c-3.5,0.1-6.5,3.3-6.4,7
			c0,3.7,3.1,6.9,6.6,6.8C401.8,63.8,405,60.4,404.9,56.9z M432.7,46c3.6,0,6.5-3,6.5-6.8c0-3.7-3-6.9-6.5-6.9
			c-3.5,0-6.6,3.2-6.6,6.8C426,42.8,429.2,46,432.7,46z M398.1,46c3.5,0.1,6.7-3.1,6.8-6.7c0.1-3.5-3-6.9-6.5-7
			c-3.5-0.1-6.6,3-6.7,6.7C391.7,42.9,394.5,46,398.1,46z M439.2,21.7c0.1-3.8-2.6-6.8-6.3-6.9c-3.7-0.1-6.7,2.8-6.8,6.5
			c-0.1,3.7,2.7,6.8,6.4,6.9C436.2,28.3,439.1,25.5,439.2,21.7z M404.9,21.6c0.1-3.6-3-6.7-6.5-6.8c-3.7-0.1-6.6,2.8-6.6,6.6
			c0,3.8,2.7,6.7,6.4,6.8C401.8,28.2,404.9,25.2,404.9,21.6z M439.2,56.8c-0.1-3.7-3.3-6.8-6.7-6.7c-3.4,0.1-6.5,3.6-6.4,7.1
			c0.1,3.6,3.4,6.8,6.8,6.7C436.4,63.8,439.3,60.6,439.2,56.8z"/>
		<path fill="#FFFFFF" d="M456.8,39.4c0-4.5-0.2-9,0-13.5c0.8-13.1,10.1-22.3,23.1-22.7c7.8-0.2,15.6-0.2,23.4,0
			c13.1,0.4,22.8,10,23.4,23.2c0.4,8.8,0.4,17.6,0,26.4c-0.6,13.4-10.7,22.8-24.1,23c-7.3,0.1-14.6,0.1-22,0
			c-13.6-0.2-23.2-9.4-23.9-23C456.6,48.4,456.8,43.9,456.8,39.4C456.8,39.4,456.8,39.4,456.8,39.4z M481.3,23.8
			c2.5,0.2,4.1,0.9,5.3,0.4c3.1-1.2,6.1-1.8,7.9,1.4c1.8,3.4-1.2,5.3-3.3,7.4c-1.4,1.4-2.4,3.3-3.1,5.2c-0.3,0.7,0.8,1.8,1.3,2.8
			c1-0.6,2.2-0.9,3-1.7c1.6-1.6,3-3.4,4.2-5.3c1.3-2,3.5-4.3,3.2-6.3c-0.4-2.7-2-6-4.2-7.5C491.5,17.5,486.5,18.9,481.3,23.8z
			 M495,51.2c-2.2-1.9-3.2-3.6-4.6-3.8c-1-0.2-3.4,1.6-3.3,2.4c0,1.4,1.3,3.5,2.5,3.9C490.6,54,492.3,52.5,495,51.2z"/>
		<path fill="#FFFFFF" d="M375.1,39.4c0,4.7,0.2,9.3,0,14c-0.7,12.7-10.1,22-22.9,22.5c-8,0.3-16,0.3-23.9,0
			c-12.7-0.4-22.3-9.7-23-22.4c-0.5-9.1-0.5-18.3,0-27.4c0.6-13.1,10.6-22.5,23.8-22.8c7.5-0.2,15-0.2,22.5,0
			c13.5,0.3,23.1,9.7,23.7,23.2C375.4,30.7,375.2,35,375.1,39.4C375.2,39.4,375.2,39.4,375.1,39.4z M363.9,56.8
			c-0.1-3.5-3.4-6.8-6.8-6.7c-3.5,0.1-6.4,3.3-6.3,7.1c0.1,3.7,3.3,6.8,6.7,6.7C360.8,63.8,364,60.3,363.9,56.8z M329.3,56.9
			c-0.1-3.7-3.2-6.9-6.7-6.7c-3.4,0.1-6.6,3.5-6.5,7.1c0.1,3.5,3.4,6.8,6.8,6.7C326.4,63.8,329.3,60.6,329.3,56.9z M340.1,32.4
			c-3.5-0.1-6.7,3.2-6.7,6.8c-0.1,3.6,3,6.8,6.5,6.9c3.5,0.1,6.7-3.1,6.7-6.7C346.7,35.8,343.5,32.5,340.1,32.4z M322.6,14.8
			c-3.6,0.1-6.6,3.3-6.5,6.8c0.1,3.6,3.1,6.6,6.8,6.5c3.7-0.1,6.4-3,6.4-6.8C329.2,17.6,326.3,14.7,322.6,14.8z M357.2,14.8
			c-3.7,0-6.5,2.9-6.5,6.7c0,3.8,2.8,6.7,6.6,6.7c3.6,0,6.6-3.1,6.7-6.7C363.9,17.9,360.7,14.8,357.2,14.8z"/>
		<path fill="#FFFFFF" d="M78.9,39.7c0-4.7-0.2-9.3,0-14C79.6,13,89,3.7,101.8,3.2c8-0.3,16-0.3,23.9,0c12.9,0.5,22.5,9.9,23.1,22.9
			c0.4,9,0.4,18,0,26.9c-0.7,13.1-10.6,22.5-23.8,22.8c-7.5,0.2-15,0.2-22.5,0c-13.5-0.3-23.1-9.7-23.7-23.2
			C78.6,48.3,78.8,44,78.9,39.7C78.8,39.7,78.8,39.7,78.9,39.7z M137.2,57.3c0.1-3.6-2.7-6.9-6.2-7.1c-3.5-0.2-7,3.2-7,6.9
			c0,3.5,3.2,6.8,6.5,6.9C134,64,137.1,60.9,137.2,57.3z M95.6,28.1c3.7,0.3,6.9-2.2,7.3-5.9c0.4-3.6-2.3-7-5.9-7.4
			c-3.7-0.4-6.8,2.2-7.2,5.9C89.5,24.7,92,27.8,95.6,28.1z"/>
		<path fill="#FFFFFF" d="M224.2,39.7c0,4.5,0.2,9,0,13.5c-0.7,13-10.2,22.3-23.2,22.7c-7.6,0.2-15.3,0.2-23,0
			c-13.4-0.3-23.2-9.8-23.8-23.3c-0.4-8.6-0.3-17.3,0-25.9c0.5-13.7,10.5-23.2,24.2-23.4c7.3-0.1,14.6-0.1,22,0
			c13.6,0.2,23.2,9.5,23.9,23C224.4,30.7,224.2,35.2,224.2,39.7C224.2,39.7,224.2,39.7,224.2,39.7z M212.9,57.1c0.1-3.5-3-6.8-6.4-7
			c-3.4-0.2-6.6,2.8-6.7,6.5c-0.2,3.8,2.9,7.3,6.5,7.3C209.6,63.9,212.8,60.6,212.9,57.1z M189.2,32.4c-3.5-0.1-6.7,3-6.8,6.7
			c-0.1,3.7,2.8,6.9,6.4,7c3.5,0.1,6.7-3,6.8-6.6C195.8,35.9,192.7,32.5,189.2,32.4z M178.3,21.4c-0.1-3.8-3-6.6-6.6-6.6
			c-3.5,0.1-6.6,3.3-6.5,6.8c0.1,3.6,3.2,6.6,6.8,6.5C175.6,28.1,178.4,25.2,178.3,21.4z"/>
		<path fill="#FFFFFF" d="M299.9,39.8c0,4,0.1,8,0,12c-0.5,14.2-10.4,23.9-24.6,24.1c-7,0.1-14,0.1-21,0c-14.2-0.1-24-9.4-24.5-23.4
			c-0.3-8.8-0.3-17.6,0.1-26.4c0.5-13.1,10-22.4,23-22.8c7.8-0.2,15.6-0.2,23.5,0c13.3,0.4,22.9,10.1,23.5,23.6
			C300.1,31.1,299.9,35.5,299.9,39.8z M288.2,57.1c0.1-3.7-2.9-6.9-6.4-7c-3.4-0.1-6.7,3.2-6.7,6.8c-0.1,3.5,3.1,6.9,6.5,7
			C285,64,288.2,60.8,288.2,57.1z M240.8,57.2c0.1,3.7,3.2,6.8,6.7,6.7c3.4-0.1,6.5-3.6,6.4-7.1c-0.1-3.5-3.4-6.8-6.8-6.7
			C243.6,50.3,240.7,53.5,240.8,57.2z M288.2,21.4c0-3.7-3-6.7-6.6-6.6c-3.6,0-6.6,3.2-6.5,6.8c0.1,3.7,3,6.6,6.7,6.6
			C285.5,28.1,288.3,25.2,288.2,21.4z M253.9,21.4c0-3.6-3.1-6.7-6.7-6.6c-3.7,0-6.5,3-6.5,6.7c0,3.8,2.8,6.7,6.6,6.6
			C251,28.1,254,25.1,253.9,21.4z"/>
		<path d="M44.7,39.2c0,3.5-3.1,6.8-6.6,6.8c-3.6,0-6.6-3.1-6.6-6.7c0-3.6,3.1-6.9,6.6-6.9C41.5,32.4,44.7,35.7,44.7,39.2z"/>
		<path d="M404.9,56.9c0.1,3.5-3.1,6.9-6.5,7c-3.5,0.1-6.6-3.1-6.6-6.8c0-3.7,2.9-6.9,6.4-7C401.6,50.1,404.9,53.4,404.9,56.9z"/>
		<path d="M432.7,46c-3.5,0-6.6-3.2-6.6-6.8c0-3.6,3.1-6.8,6.6-6.8c3.5,0,6.5,3.2,6.5,6.9C439.2,43,436.3,46,432.7,46z"/>
		<path d="M398.1,46c-3.6-0.1-6.4-3.1-6.4-6.9c0.1-3.7,3.2-6.8,6.7-6.7c3.5,0.1,6.6,3.4,6.5,7C404.9,42.9,401.6,46.1,398.1,46z"/>
		<path d="M439.2,21.7c-0.1,3.8-3,6.6-6.7,6.5c-3.7-0.1-6.5-3.2-6.4-6.9c0.1-3.7,3.1-6.6,6.8-6.5C436.5,14.9,439.3,17.9,439.2,21.7z
			"/>
		<path d="M404.9,21.6c-0.1,3.6-3.1,6.6-6.7,6.6c-3.7,0-6.5-2.9-6.4-6.8c0-3.8,3-6.7,6.6-6.6C401.9,14.8,405,18,404.9,21.6z"/>
		<path d="M439.2,56.8c0.1,3.7-2.8,6.9-6.3,7.1c-3.4,0.1-6.7-3.1-6.8-6.7c-0.1-3.5,3-7,6.4-7.1C435.9,50,439.1,53.2,439.2,56.8z"/>
		<path d="M481.3,23.8c5.2-4.9,10.2-6.3,14.4-3.5c2.2,1.5,3.8,4.8,4.2,7.5c0.3,1.9-1.9,4.3-3.2,6.3c-1.2,1.9-2.7,3.6-4.2,5.3
			c-0.8,0.8-2,1.1-3,1.7c-0.5-0.9-1.5-2.1-1.3-2.8c0.7-1.9,1.7-3.8,3.1-5.2c2.1-2.2,5.1-4.1,3.3-7.4c-1.8-3.2-4.8-2.6-7.9-1.4
			C485.4,24.7,483.8,24.1,481.3,23.8z"/>
		<path d="M495,51.2c-2.6,1.3-4.3,2.8-5.4,2.5c-1.2-0.4-2.4-2.5-2.5-3.9c0-0.8,2.3-2.6,3.3-2.4C491.7,47.5,492.8,49.2,495,51.2z"/>
		<path d="M363.9,56.8c0.1,3.5-3.1,6.9-6.5,7.1c-3.4,0.1-6.6-3-6.7-6.7c-0.1-3.7,2.8-7,6.3-7.1C360.4,50.1,363.7,53.3,363.9,56.8z"
			/>
		<path d="M329.3,56.9c0.1,3.7-2.8,6.9-6.3,7c-3.4,0.1-6.7-3.2-6.8-6.7c-0.1-3.5,3.1-6.9,6.5-7.1C326.1,50,329.2,53.2,329.3,56.9z"
			/>
		<path d="M340.1,32.4c3.5,0.1,6.6,3.4,6.5,6.9c-0.1,3.6-3.2,6.7-6.7,6.7c-3.5-0.1-6.6-3.3-6.5-6.9
			C333.4,35.6,336.6,32.4,340.1,32.4z"/>
		<path d="M322.6,14.8c3.7-0.1,6.6,2.8,6.7,6.6c0.1,3.8-2.7,6.7-6.4,6.8c-3.6,0.1-6.7-2.9-6.8-6.5C316,18,319.1,14.9,322.6,14.8z"/>
		<path d="M357.2,14.8c3.5,0,6.7,3.1,6.7,6.7c0,3.6-3.1,6.7-6.7,6.7c-3.7,0-6.5-2.8-6.6-6.7C350.7,17.7,353.5,14.8,357.2,14.8z"/>
		<path d="M137.2,57.3c-0.1,3.6-3.2,6.7-6.6,6.7c-3.3-0.1-6.5-3.4-6.5-6.9c0-3.7,3.5-7.1,7-6.9C134.6,50.4,137.4,53.6,137.2,57.3z"
			/>
		<path d="M95.6,28.1c-3.7-0.3-6.1-3.5-5.8-7.3c0.3-3.8,3.4-6.3,7.2-5.9c3.6,0.4,6.3,3.7,5.9,7.4C102.5,25.9,99.4,28.5,95.6,28.1z"
			/>
		<path d="M212.9,57.1c-0.1,3.4-3.3,6.7-6.6,6.8c-3.6,0-6.7-3.4-6.5-7.3c0.2-3.7,3.3-6.7,6.7-6.5C209.9,50.3,212.9,53.7,212.9,57.1z
			"/>
		<path d="M189.2,32.4c3.4,0.1,6.6,3.5,6.5,7c-0.1,3.6-3.3,6.7-6.8,6.6c-3.6-0.1-6.5-3.3-6.4-7C182.5,35.5,185.8,32.3,189.2,32.4z"
			/>
		<path d="M178.3,21.4c0.1,3.8-2.7,6.7-6.4,6.8c-3.6,0.1-6.7-2.9-6.8-6.5c-0.1-3.5,3-6.8,6.5-6.8C175.4,14.7,178.2,17.6,178.3,21.4z
			"/>
		<path d="M288.2,57.1c-0.1,3.7-3.2,6.9-6.6,6.8c-3.4-0.1-6.6-3.5-6.5-7c0.1-3.6,3.3-6.8,6.7-6.8C285.3,50.2,288.3,53.5,288.2,57.1z
			"/>
		<path d="M240.8,57.2c-0.1-3.7,2.8-6.9,6.3-7.1c3.4-0.1,6.7,3.2,6.8,6.7c0.1,3.5-3,6.9-6.4,7.1C244,64,240.9,60.9,240.8,57.2z"/>
		<path d="M288.2,21.4c0,3.8-2.7,6.7-6.4,6.8c-3.7,0-6.7-2.9-6.7-6.6c-0.1-3.6,2.9-6.7,6.5-6.8C285.3,14.7,288.2,17.7,288.2,21.4z"
			/>
		<path d="M253.9,21.4c0,3.7-2.9,6.7-6.6,6.7c-3.7,0-6.5-2.8-6.6-6.6c0-3.8,2.8-6.7,6.5-6.7C250.9,14.8,253.9,17.8,253.9,21.4z"/>
	</g>
</g>
</svg>
