<?xml version="1.0" encoding="utf-8"?>
<!-- Generator: Adobe Illustrator 18.1.0, SVG Export Plug-In . SVG Version: 6.00 Build 0)  -->
<svg version="1.1" id="Layer_1" xmlns="http://www.w3.org/2000/svg" xmlns:xlink="http://www.w3.org/1999/xlink" x="0px" y="0px"
	 viewBox="0 0 483.1 53" enable-background="new 0 0 483.1 53" xml:space="preserve">
<g>
	<g>
		<path fill="#FFFFFF" d="M-19.7,54c0-17.7,0-35.3,0-53c176,0,352,0,528,0c0,17.7,0,35.3,0,53C332.3,54,156.3,54-19.7,54z
			 M461.8,10.1c0,0.6-0.1,1.2-0.1,1.8c1.4,0.1,2.9,0.4,4.3,0.4c0.5,0,1-0.6,1.4-0.5c2.2,0.5,4.4,1.1,6.6,1.7c-0.6,2.1-1,4.3-1.9,6.1
			c-1.3,2.5-3.2,4.6-4.5,7.1c-0.2,0.4,1,1.9,1.8,2.2c0.5,0.2,1.8-0.5,2.3-1.1c1.9-2.2,3.6-4.6,5.5-6.7c4.5-4.9,2.9-11.3-3.3-13.4
			C469.2,6.1,465.4,7.6,461.8,10.1z M371.1,44.8c-0.1,3.7,2.8,6.9,6.3,7.1c3.4,0.1,6.7-3.2,6.8-6.7c0.1-3.5-3.1-7-6.5-7.1
			C374.3,38,371.2,41.1,371.1,44.8z M343.2,45.1c0-3.5-3.1-6.9-6.6-7c-3.5-0.1-6.5,3.1-6.6,6.8c0,3.7,2.9,6.9,6.4,7
			C339.8,51.9,343.1,48.6,343.2,45.1z M308.6,44.9c-0.1-3.7-3.1-6.9-6.6-6.8c-3.4,0.1-6.6,3.5-6.5,7c0.1,3.5,3.4,6.8,6.7,6.8
			C305.7,51.8,308.7,48.6,308.6,44.9z M179.1,45.2c0.1,3.6,3.1,6.8,6.6,6.7c3.3,0,6.6-3.4,6.6-6.8c0-3.7-3.4-7.1-6.9-7
			C181.8,38.3,179,41.5,179.1,45.2z M116.6,45.1c0-3.6-2.9-6.8-6.4-6.9c-3.5-0.1-6.9,3.4-6.8,7.1c0.1,3.5,3.4,6.7,6.7,6.7
			C113.6,51.8,116.6,48.7,116.6,45.1z M168.4,20.4c-3.5,0-6.6,3.2-6.6,6.8c0,3.6,3,6.8,6.6,6.8c3.5,0,6.7-3.2,6.7-6.7
			C175,23.8,171.9,20.5,168.4,20.4z M24.1,27.5c0.1-3.5-3-6.9-6.5-7c-3.5-0.1-6.7,3-6.8,6.6c-0.1,3.7,2.8,6.9,6.4,7
			C20.7,34.1,24,31,24.1,27.5z M418.5,9.6c0.1-3.8-2.7-6.8-6.4-6.8c-3.7-0.1-6.7,2.8-6.8,6.5c-0.1,3.7,2.8,6.7,6.4,6.8
			C415.6,16.2,418.4,13.5,418.5,9.6z M384.3,9.3c-0.1-3.6-3.2-6.6-6.8-6.5c-3.7,0.1-6.4,3.1-6.4,6.8c0.1,3.8,2.9,6.6,6.7,6.5
			C381.4,16.1,384.3,12.9,384.3,9.3z M325.9,27.3c0-3.6-3.1-6.9-6.6-6.9c-3.5,0-6.6,3.2-6.7,6.8c0,3.6,3,6.8,6.6,6.8
			C322.8,34.1,325.9,30.9,325.9,27.3z M377.8,34c3.4-0.1,6.6-3.4,6.5-6.9c-0.1-3.6-3.3-6.8-6.8-6.7c-3.5,0.1-6.4,3.2-6.4,7
			C371.2,31.2,374.1,34.1,377.8,34z M412.2,34c3.6-0.1,6.4-3.2,6.3-6.9c-0.1-3.7-3.2-6.8-6.7-6.7c-3.5,0.1-6.5,3.4-6.4,7
			C405.5,31,408.7,34.1,412.2,34z M302,2.8c-3.6,0.1-6.6,3.3-6.5,6.8c0.1,3.6,3.1,6.6,6.8,6.5c3.7-0.1,6.4-3,6.4-6.8
			C308.6,5.6,305.6,2.7,302,2.8z M267.6,9.4c0-3.8-3-6.7-6.6-6.6c-3.6,0.1-6.6,3.2-6.5,6.8c0.1,3.7,3.1,6.6,6.7,6.5
			C264.9,16.1,267.6,13.2,267.6,9.4z M233.3,45c0-3.5-3.3-6.9-6.7-6.8c-3.5,0-6.5,3.2-6.4,7c0,3.7,3.1,6.9,6.6,6.8
			C230.1,51.9,233.3,48.5,233.3,45z M267.5,44.9c0-3.7-3.1-6.9-6.6-6.8c-3.4,0.1-6.6,3.5-6.5,7c0,3.5,3.3,6.8,6.7,6.8
			C264.6,51.9,267.6,48.6,267.5,44.9z M226,16.2c4.3,0,7.3-2.9,7.3-6.6c0.1-3.6-2.9-6.7-6.5-6.8c-3.9-0.1-6.5,2.8-6.4,7.2
			C220.5,14,222.8,15.8,226,16.2z M75.9,2.8c-3.7-0.1-6.6,2.7-6.7,6.5c-0.1,3.9,2.6,6.8,6.3,6.8c3.7,0.1,6.7-2.7,6.8-6.5
			C82.4,6,79.5,2.9,75.9,2.8z M418.5,45.1c0-3.7-2.9-6.9-6.4-7c-3.4-0.1-6.6,3.2-6.7,6.8c0,3.5,3.1,6.9,6.5,7
			C415.4,52,418.5,48.8,418.5,45.1z M336.7,2.8c-3.7-0.1-6.6,2.8-6.7,6.5c-0.1,3.8,2.7,6.8,6.4,6.8c3.6,0.1,6.7-2.9,6.8-6.5
			C343.3,6.1,340.2,2.9,336.7,2.8z M157.7,9.5c0-3.8-2.8-6.7-6.5-6.7c-3.5,0-6.7,3.1-6.7,6.7c0,3.6,3,6.7,6.6,6.7
			C154.8,16.2,157.6,13.3,157.7,9.5z M474.4,38.5c-2.4-1.6-3.7-3.2-5.1-3.2c-1,0-3.1,2.1-2.9,2.9c0.2,1.3,1.8,3.3,3,3.5
			C470.5,41.9,472,40.1,474.4,38.5z"/>
		<path d="M461.8,10.1c3.6-2.5,7.4-4,12-2.4c6.2,2.2,7.8,8.5,3.3,13.4c-1.9,2.1-3.6,4.6-5.5,6.7c-0.6,0.6-1.8,1.4-2.3,1.1
			c-0.8-0.3-2-1.9-1.8-2.2c1.4-2.4,3.2-4.6,4.5-7.1c1-1.9,1.3-4.1,1.9-6.1c-2.2-0.6-4.4-1.2-6.6-1.7c-0.4-0.1-0.9,0.5-1.4,0.5
			c-1.4-0.1-2.9-0.3-4.3-0.4C461.7,11.3,461.7,10.7,461.8,10.1z"/>
		<path d="M371.1,44.8c0.1-3.7,3.2-6.8,6.7-6.7c3.4,0.1,6.6,3.6,6.5,7.1c-0.1,3.5-3.4,6.8-6.8,6.7C373.9,51.8,371,48.6,371.1,44.8z"
			/>
		<path d="M343.2,45.1c0,3.5-3.4,6.8-6.7,6.8c-3.5,0-6.5-3.2-6.4-7c0-3.7,3.1-6.9,6.6-6.8C340.1,38.2,343.2,41.6,343.2,45.1z"/>
		<path d="M308.6,44.9c0.1,3.7-2.9,6.9-6.4,7c-3.4,0.1-6.7-3.2-6.7-6.8c-0.1-3.5,3.1-6.9,6.5-7C305.5,38,308.5,41.2,308.6,44.9z"/>
		<path d="M179.1,45.2c-0.1-3.7,2.7-6.9,6.2-7c3.5-0.2,7,3.3,6.9,7c0,3.4-3.3,6.8-6.6,6.8C182.2,52,179.1,48.8,179.1,45.2z"/>
		<path d="M116.6,45.1c0,3.6-3,6.8-6.4,6.9c-3.3,0.1-6.6-3.2-6.7-6.7c-0.1-3.7,3.3-7.2,6.8-7.1C113.7,38.2,116.6,41.4,116.6,45.1z"
			/>
		<path d="M168.4,20.4c3.5,0,6.6,3.3,6.6,6.9c0,3.6-3.2,6.8-6.7,6.7c-3.5,0-6.6-3.2-6.6-6.8C161.8,23.6,164.9,20.4,168.4,20.4z"/>
		<path d="M24.1,27.5C24,31,20.7,34.1,17.2,34c-3.6-0.1-6.5-3.3-6.4-7c0.1-3.6,3.3-6.8,6.8-6.6C21,20.6,24.2,24,24.1,27.5z"/>
		<path d="M418.5,9.6c-0.1,3.8-2.9,6.6-6.7,6.5c-3.7-0.1-6.5-3.1-6.4-6.8c0.1-3.7,3.1-6.6,6.8-6.5C415.8,2.9,418.6,5.9,418.5,9.6z"
			/>
		<path d="M384.3,9.3c0.1,3.6-2.9,6.7-6.5,6.8c-3.7,0.1-6.6-2.7-6.7-6.5c-0.1-3.8,2.7-6.8,6.4-6.8C381.1,2.7,384.2,5.7,384.3,9.3z"
			/>
		<path d="M325.9,27.3c0,3.6-3.2,6.8-6.7,6.7c-3.5,0-6.6-3.2-6.6-6.8c0-3.6,3.2-6.8,6.7-6.8C322.8,20.5,326,23.8,325.9,27.3z"/>
		<path d="M377.8,34c-3.6,0.1-6.6-2.9-6.6-6.6c0-3.7,2.9-6.9,6.4-7c3.5-0.1,6.7,3.1,6.8,6.7C384.3,30.6,381.2,34,377.8,34z"/>
		<path d="M412.2,34c-3.5,0.1-6.7-3-6.8-6.6c-0.1-3.6,2.9-6.9,6.4-7c3.5-0.1,6.6,3,6.7,6.7C418.6,30.9,415.8,33.9,412.2,34z"/>
		<path d="M302,2.8c3.7-0.1,6.6,2.8,6.7,6.6c0.1,3.8-2.7,6.7-6.4,6.8c-3.6,0.1-6.7-2.9-6.8-6.5C295.4,6,298.4,2.9,302,2.8z"/>
		<path d="M267.6,9.4c0.1,3.8-2.7,6.7-6.4,6.8c-3.7,0.1-6.7-2.8-6.7-6.5c-0.1-3.6,2.9-6.8,6.5-6.8C264.6,2.7,267.5,5.6,267.6,9.4z"
			/>
		<path d="M233.3,45c0,3.5-3.1,6.9-6.6,7c-3.5,0.1-6.5-3.1-6.6-6.8c0-3.7,2.9-6.9,6.4-7C230,38.1,233.2,41.4,233.3,45z"/>
		<path d="M267.5,44.9c0,3.7-2.9,6.9-6.4,7c-3.4,0.1-6.7-3.3-6.7-6.8c0-3.5,3.1-6.9,6.5-7C264.4,38.1,267.5,41.3,267.5,44.9z"/>
		<path d="M226,16.2c-3.2-0.3-5.5-2.2-5.6-6.2c-0.1-4.4,2.5-7.2,6.4-7.2c3.6,0.1,6.6,3.2,6.5,6.8C233.2,13.2,230.3,16.2,226,16.2z"
			/>
		<path d="M75.9,2.8c3.6,0.1,6.6,3.2,6.4,6.9c-0.1,3.7-3.1,6.6-6.8,6.5c-3.7-0.1-6.4-3-6.3-6.8C69.3,5.5,72.2,2.7,75.9,2.8z"/>
		<path d="M418.5,45.1c0,3.7-3.1,6.9-6.6,6.8c-3.4,0-6.6-3.4-6.5-7c0-3.6,3.3-6.9,6.7-6.8C415.6,38.2,418.5,41.4,418.5,45.1z"/>
		<path d="M336.7,2.8c3.5,0.1,6.6,3.4,6.5,6.9c-0.1,3.6-3.2,6.6-6.8,6.5c-3.7-0.1-6.4-3-6.4-6.8C330.1,5.5,333,2.7,336.7,2.8z"/>
		<path d="M157.7,9.5c0,3.8-2.8,6.7-6.6,6.6c-3.6,0-6.6-3.1-6.6-6.7c0-3.6,3.1-6.7,6.7-6.7C154.9,2.8,157.7,5.7,157.7,9.5z"/>
		<path d="M474.4,38.5c-2.4,1.6-3.9,3.3-5,3.2c-1.2-0.2-2.8-2.1-3-3.5c-0.1-0.9,1.9-2.9,2.9-2.9C470.6,35.3,472,36.9,474.4,38.5z"/>
	</g>
</g>
</svg>
