<?xml version="1.0" encoding="utf-8"?>
<!-- Generator: Adobe Illustrator 18.1.0, SVG Export Plug-In . SVG Version: 6.00 Build 0)  -->
<svg version="1.1" id="Layer_1" xmlns="http://www.w3.org/2000/svg" xmlns:xlink="http://www.w3.org/1999/xlink" x="0px" y="0px"
	 viewBox="0 0 173.7 289.8" enable-background="new 0 0 173.7 289.8" xml:space="preserve">
<rect x="0" y="0" fill="#B78C61" stroke="#B78C61" stroke-miterlimit="10" width="173.7" height="289.8"/>
<rect x="86.9" y="0" fill="#A46E49" stroke="#A46E49" stroke-miterlimit="10" width="86.9" height="289.8"/>
<g>
	<g>
		<path fill="#B78C61" d="M19.5,21.1c3.2,0,3.2-5,0-5C16.3,16.1,16.3,21.1,19.5,21.1L19.5,21.1z"/>
	</g>
</g>
<ellipse fill="#DBE9EC" stroke="#DBE9EC" stroke-width="2" stroke-miterlimit="10" cx="17.6" cy="13.4" rx="3.2" ry="3.2"/>
<path fill="#DBE9EC" stroke="#DBE9EC" stroke-width="2" stroke-miterlimit="10" d="M160.7,11c2.6,3.5-1.3,7.4-4.7,4.8
	C153.4,12.3,157.3,8.4,160.7,11z"/>
<path fill="#DBE9EC" stroke="#DBE9EC" stroke-width="2" stroke-miterlimit="10" d="M160.7,275.7c2.6,3.5-1.3,7.4-4.7,4.8
	C153.4,277,157.3,273.1,160.7,275.7z"/>
<path fill="#DBE9EC" stroke="#DBE9EC" stroke-width="2" stroke-miterlimit="10" d="M19.7,275.7c2.6,3.5-1.3,7.4-4.7,4.8
	C12.4,277,16.3,273.1,19.7,275.7z"/>
</svg>
